<svg xmlns="http://www.w3.org/2000/svg" aria-hidden="true" style="position:absolute;width:0;height:0;overflow:hidden">
  <defs>
    <symbol id="icon-close" viewBox="0 0 32 32">
      <path fill="none" stroke="#e9c125" stroke-width="1.333" d="M5.333.667h21.333a4.667 4.667 0 0 1 4.667 4.667v21.333a4.667 4.667 0 0 1-4.667 4.667H5.333a4.667 4.667 0 0 1-4.667-4.667V5.334A4.667 4.667 0 0 1 5.333.667z" style="stroke:var(--color1, #e9c125)"/>
      <path fill="none" stroke="#fffdfd" stroke-linecap="round" stroke-linejoin="round" stroke-width="1.333" d="m7 7 9 9m0 0-9 9m9-9 9 9m-9-9 9-9" style="stroke:var(--color2, #fffdfd)"/>
    </symbol>
    <symbol id="icon-arrow-left" viewBox="0 0 32 32">
      <path d="M16 0c7.953 0 14.4 6.447 14.4 14.4S23.953 28.8 16 28.8 1.6 22.353 1.6 14.4 8.047 0 16 0z"/>
      <path fill="none" stroke="#ecf6ff" stroke-width=".8" d="M16 .4c7.732 0 14 6.268 14 14s-6.268 14-14 14-14-6.268-14-14S8.268.4 16 .4z" style="stroke:var(--color3, #ecf6ff)"/>
      <path fill="none" stroke="#ecf6ff" stroke-linecap="round" stroke-linejoin="round" stroke-width=".8" d="m18.4 19.2-4.8-4.8 4.8-4.8" style="stroke:var(--color3, #ecf6ff)"/>
    </symbol>
    <symbol id="icon-arrow-right" viewBox="0 0 32 32">
      <path d="M16 0c7.953 0 14.4 6.447 14.4 14.4S23.953 28.8 16 28.8 1.6 22.353 1.6 14.4 8.047 0 16 0z"/>
      <path fill="none" stroke="#ecf6ff" stroke-width=".8" d="M16 .4c7.732 0 14 6.268 14 14s-6.268 14-14 14-14-6.268-14-14S8.268.4 16 .4z" style="stroke:var(--color3, #ecf6ff)"/>
      <path fill="none" stroke="#ecf6ff" stroke-linecap="round" stroke-linejoin="round" stroke-width=".8" d="m13.6 19.2 4.8-4.8-4.8-4.8" style="stroke:var(--color3, #ecf6ff)"/>
    </symbol>
    <symbol id="icon-menu" viewBox="0 0 32 32">
      <path fill="none" stroke="#3573ab" stroke-width="1.333" d="M5.333.667h21.333a4.667 4.667 0 0 1 4.667 4.667v21.333a4.667 4.667 0 0 1-4.667 4.667H5.333a4.667 4.667 0 0 1-4.667-4.667V5.334A4.667 4.667 0 0 1 5.333.667z" style="stroke:var(--color4, #3573ab)"/>
      <path fill="none" stroke="#ecf6ff" stroke-linecap="round" stroke-width="1.333" d="M7.5 9.5h17m-17 12h17m-17-6h17" style="stroke:var(--color3, #ecf6ff)"/>
    </symbol>
    <symbol id="icon-microsoft-logo" viewBox="0 0 32 32">
      <path fill="#f25022" d="M15.211 0H0v15.22h15.211V0z" style="fill:var(--color5, #f25022)"/>
      <path fill="#7fba00" d="M32 0H16.789v15.22H32V0z" style="fill:var(--color6, #7fba00)"/>
      <path fill="#00a4ef" d="M15.211 16.78H0V32h15.211V16.78z" style="fill:var(--color7, #00a4ef)"/>
      <path fill="#ffb900" d="M32 16.78H16.789V32H32V16.78z" style="fill:var(--color8, #ffb900)"/>
    </symbol>
  </defs>
</svg>
